# xmcd
# Copyright (C) 1995-1998 Ti Kan
#
# Track frame offsets:
#       150
#       19795
#       40658
#       60679
#       77881
#       93448
#       114150
#       132008
#       152050
#       169117
#       189933
#
# Disc length: 2762 seconds
#
# Revision: 0
# Processed by: cddbd v1.5.2PL0 Copyright (c) Steve Scherf et al.
# Submitted via: CD-Transfer v1.0
#
DISCID=7d0ac80b
DTITLE=Martin Perkmann - Swing Blues Soul
DYEAR=08
DGENRE=
TTITLE0=Realist
TTITLE1=Meine Ex Und Ich
TTITLE2=Nur Du Und Ich
TTITLE3=M‰nner Reden Nicht
TTITLE4=Scheiﬂtag Blues
TTITLE5=Auf Den Kopfgestellt
TTITLE6=Rockstar
TTITLE7=Bist Du Es
TTITLE8=Frauen Suchen Typen
TTITLE9=Auf Der Anderen Seite
TTITLE10=Du Brauchst Mich Nicht Zu Lieben
EXTD=
EXTT0=
EXTT1=
EXTT2=
EXTT3=
EXTT4=
EXTT5=
EXTT6=
EXTT7=
EXTT8=
EXTT9=
EXTT10=
PLAYORDER=
